<?xml version="1.0" standalone="no"?>
<!DOCTYPE svg PUBLIC "-//W3C//DTD SVG 1.1//EN" "http://www.w3.org/Graphics/SVG/1.1/DTD/svg11.dtd" >
<svg>
<metadata>
Created by FontForge 20090622 at Thu Jul  2 13:29:46 2015
 By deploy user
</metadata>
<defs>
<font id="FalcoBlackOutline" horiz-adv-x="726" >
  <font-face 
    font-family="Falco Black Outline"
    font-weight="900"
    font-stretch="normal"
    units-per-em="1000"
    panose-1="0 0 0 0 0 0 0 0 0 0"
    ascent="750"
    descent="-250"
    x-height="750"
    cap-height="751"
    bbox="4 -160 932 910"
    underline-thickness="50"
    underline-position="-50"
    unicode-range="U+000D-U+007E"
  />
<missing-glyph horiz-adv-x="208" 
 />
    <glyph glyph-name=".notdef" horiz-adv-x="208" 
 />
    <glyph glyph-name="NULL" horiz-adv-x="0" 
 />
    <glyph glyph-name="NULL" horiz-adv-x="0" 
 />
    <glyph glyph-name="nonmarkingreturn" unicode="&#xd;" horiz-adv-x="200" 
 />
    <glyph glyph-name="space" unicode=" " horiz-adv-x="200" 
 />
    <glyph glyph-name="E" unicode="E" horiz-adv-x="626" 
d="M585 0h-530v750h530v-193h-336v-84h205v-194h-205v-85h336v-194v0zM95 40h451v115h-336v163h205v115h-205v163h336v115h-451v-671v0z" />
    <glyph glyph-name="F" unicode="F" horiz-adv-x="594" 
d="M253 0h-198v750h542v-197h-344v-87h210v-197h-210v-269v0zM95 39h119v269h209v119h-209v166h344v118h-463v-672v0z" />
    <glyph glyph-name="G" unicode="G" horiz-adv-x="816" 
d="M412 0q-77 0 -145.5 29.5t-119.5 80.5t-80.5 119.5t-29.5 145.5q0 78 29.5 146t80.5 119t119.5 80.5t145.5 29.5q81 0 154 -32.5t127 -92.5l13 -15l-147 -130l-13 14q-26 29 -60.5 44.5t-73.5 15.5q-37 0 -69.5 -14t-56.5 -38.5t-38 -57t-14 -69.5t14 -69.5t38 -57
t56.5 -38.5t69.5 -14q47 0 86.5 21.5t63.5 59.5h-169v196h395v-98q0 -77 -29.5 -145.5t-80.5 -119.5t-119.5 -80.5t-146.5 -29.5zM412 711q-69 0 -130 -26.5t-107 -72t-72.5 -107t-26.5 -130.5t26.5 -130.5t72.5 -107t107 -72t130 -26.5q70 0 131 26.5t107 72t72.5 107
t26.5 130.5v59h-316v-118h192l-12 -27q-13 -30 -33.5 -54.5t-47 -41.5t-57 -26.5t-63.5 -9.5q-45 0 -84.5 17t-69 47t-46.5 69.5t-17 84.5t17 84.5t46.5 69.5t69 47t84.5 17q42 0 80.5 -15t68.5 -44l88 79q-47 48 -108 73t-129 25z" />
    <glyph glyph-name="H" unicode="H" 
d="M677 0h-198v272h-226v-272h-198v750h198v-280h226v280h198v-750v0zM519 40h118v670h-118v-280h-306v280h-118v-670h118v272h306v-272v0z" />
    <glyph glyph-name="I" unicode="I" horiz-adv-x="275" 
d="M254 0h-199v751h199v-751v0zM95 40h119v672h-119v-672v0z" />
    <glyph glyph-name="J" unicode="J" horiz-adv-x="555" 
d="M230 0q-127 0 -208 72l-15 13l130 145l14 -13q26 -23 79 -23q54 0 78 24q9 9 14.5 21.5t8.5 24.5t4 22t1 15v2v2v446h194v-445q0 -8 -1 -31.5t-8.5 -55t-24.5 -67t-47 -67.5q-14 -14 -34 -29t-47 -27.5t-61.5 -20.5t-76.5 -8zM63 89q67 -50 167 -50q37 0 67.5 6.5t54 17
t41 23.5t29.5 25q26 28 40 59t20.5 58.5t7.5 48.5t1 28v407h-116v-408v-2q0 -9 -1 -22.5t-5.5 -29t-12.5 -31t-20 -27.5q-34 -37 -106 -37q-55 0 -89 21z" />
    <glyph glyph-name="K" unicode="K" horiz-adv-x="799" 
d="M754 0h-276l-265 279l-17 -18v-261h-191v749h191v-205l196 206h269l-313 -330l406 -420v0zM495 39h167l-369 381l276 291h-161l-251 -265v264h-114v-671h114v238l56 59l282 -297v0z" />
    <glyph glyph-name="L" unicode="L" horiz-adv-x="596" 
d="M600 0h-545v751h197v-554h348v-197v0zM94 39h467v119h-348v554h-119v-673v0z" />
    <glyph glyph-name="M" unicode="M" horiz-adv-x="861" 
d="M806 0h-197v221l-106 -221h-136l-115 232v-232h-197v751h159l220 -441l212 441h160v-751v0zM649 39h118v673h-96l-237 -492l-244 492h-96v-673h118v361l179 -361h87l171 355v-355v0z" />
    <glyph glyph-name="N" unicode="N" horiz-adv-x="729" 
d="M682 0h-148l-280 371v-371h-199v750h162l267 -354v354h198v-750v0zM554 39h89v670h-120v-432l-326 432h-102v-670h119v450l340 -450v0z" />
    <glyph glyph-name="O" unicode="O" horiz-adv-x="826" 
d="M412 0q-78 0 -146 29.5t-119 80.5t-80.5 119t-29.5 146t29.5 146.5t80.5 119.5t119 80.5t146 29.5t146 -29.5t119 -80.5t80.5 -119.5t29.5 -146.5t-29.5 -146t-80.5 -119t-119 -80.5t-146 -29.5zM412 712q-70 0 -131.5 -26.5t-107 -72.5t-72 -107t-26.5 -131
q0 -69 26.5 -130.5t72 -107.5t107 -72.5t131.5 -26.5q69 0 130.5 26.5t107.5 72.5t72.5 107.5t26.5 130.5q0 70 -26.5 131t-72.5 107t-107.5 72.5t-130.5 26.5zM412 155q-45 0 -85 17.5t-70 47.5t-47.5 70t-17.5 85t17.5 85t47.5 70t70 47.5t85 17.5t85 -17.5t70 -47.5
t47.5 -70t17.5 -85t-17.5 -85t-47.5 -70t-70 -47.5t-85 -17.5zM412 557q-38 0 -70.5 -14.5t-57.5 -39t-39 -58t-14 -70.5q0 -38 14 -70.5t39 -57.5t57.5 -39t70.5 -14q37 0 70 14t58 39t39 57.5t14 70.5q0 37 -14 70.5t-39 58t-58 39t-70 14.5z" />
    <glyph glyph-name="P" unicode="P" horiz-adv-x="673" 
d="M250 0h-195v751l379 -1q36 -2 77 -16t76 -43t58.5 -73.5t23.5 -107.5q0 -36 -7.5 -64.5t-19.5 -50.5t-26.5 -38.5t-28.5 -28.5q-31 -25 -71.5 -39t-80.5 -16h-2h-183v-273zM94 39h117v273h224q29 1 63 12t63.5 35t49.5 61t20 90q0 52 -20 89.5t-50 62t-64.5 36.5
t-64.5 14h-338v-673zM432 428h-221v168l217 -1q5 0 18 -2.5t27 -10.5q40 -21 40 -72q0 -32 -11 -46.5t-23 -21.5q-16 -8 -30.5 -10.5t-16.5 -3.5zM250 468h180q4 0 13 2t17 7q5 3 10 8.5t5 24.5q0 17 -5 24t-15 12q-9 5 -18 7t-13 3h-174v-88z" />
    <glyph glyph-name="Q" unicode="Q" horiz-adv-x="842" 
d="M670 -15l-71 68q-88 -53 -191 -53q-78 0 -146.5 29.5t-119.5 80.5t-80.5 119.5t-29.5 145.5q0 78 29.5 146t80.5 119t119.5 80.5t146.5 29.5q77 0 145 -29.5t119 -80.5t80.5 -119t29.5 -146q0 -100 -48 -184l70 -67zM408 711q-70 0 -131.5 -26.5t-107 -72t-72 -107
t-26.5 -130.5q0 -70 26.5 -131t72 -106.5t107 -72t131.5 -26.5q49 0 95 14t88 40l13 9l65 -62l80 83l-64 62l9 14q49 80 49 176q0 69 -26.5 130.5t-72 107t-106.5 72t-130 26.5zM408 155q-46 0 -86 17t-70 47t-47.5 70t-17.5 86q0 45 17.5 85t47.5 70t70 47.5t86 17.5
q45 0 85 -17.5t70 -47.5t47.5 -70t17.5 -85q0 -42 -17 -82l-10 -26l-104 99l-80 -84l102 -99l-27 -11q-38 -17 -84 -17zM408 556q-38 0 -71 -14t-57.5 -39t-39 -58t-14.5 -70q0 -38 14.5 -71t39 -57.5t57.5 -39t71 -14.5q10 0 20 2l20 4l-86 82l134 140l88 -85q2 9 3 19
t1 20q0 37 -14 70t-38.5 58t-57.5 39t-70 14z" />
    <glyph glyph-name="R" unicode="R" horiz-adv-x="745" 
d="M728 0h-217l-138 274h-123v-274h-195v751h379q36 -2 77 -16t76.5 -43t59 -74t23.5 -108t-26 -112.5t-75 -81.5zM534 39h131l-147 292l16 9q16 9 33.5 23t31 34.5t22.5 48.5t9 64q0 52 -19.5 90t-49 62t-64.5 36t-65 14h-338v-673h117v273h186zM431 429h-220v167h217
q4 -1 17.5 -4t27.5 -11q22 -11 31.5 -28t9.5 -43q0 -32 -11 -46t-23 -21q-17 -8 -31.5 -10.5t-16.5 -3.5h-1zM250 468h180q4 0 13 2t17 7q5 3 10 8.5t5 24.5q0 17 -5 24.5t-15 12.5t-18.5 7l-12.5 3h-174v-89z" />
    <glyph glyph-name="S" unicode="S" horiz-adv-x="659" 
d="M337 0h-19t-20 2q-80 8 -145 43t-102 91l-10 16l162 106l10 -16q11 -14 37.5 -28.5t66.5 -18.5q26 -2 51.5 1.5t42.5 13.5q11 6 15 10.5t5 6.5q0 3 -1.5 8.5t-8.5 12.5q-8 8 -29 17.5t-65 13.5q-68 6 -121.5 28.5t-90 57t-54 79.5t-12.5 98t36 96.5t84 72.5q74 40 167 40
q9 0 18.5 -0.5t20.5 -1.5q80 -8 145 -43.5t102 -91.5l10 -16l-162 -105l-11 16q-10 14 -36.5 28t-66.5 18q-26 3 -51.5 -1t-43.5 -14q-11 -5 -15 -10t-4 -6q-1 -11 9 -19.5t25.5 -15.5t34.5 -11.5t35 -5.5q69 -7 123 -29t90 -56.5t53 -79.5t12 -99q-5 -52 -36.5 -96
t-83.5 -72q-36 -20 -78.5 -30t-88.5 -10zM95 142q33 -42 87.5 -68.5t120.5 -32.5q8 -1 17 -1.5t17 -0.5q83 0 148 35q45 23 70.5 59t29.5 79q4 45 -11 83t-46.5 66.5t-78.5 47t-107 24.5q-21 2 -46 8t-46.5 17.5t-35 28.5t-11.5 41q3 25 40 47q23 12 53.5 17.5t62.5 2.5
q44 -5 73.5 -19t46.5 -31l98 64q-32 42 -86.5 68.5t-120.5 32.5q-8 1 -17 1.5t-17 0.5q-84 0 -149 -35q-44 -23 -69.5 -59.5t-29.5 -78.5q-4 -44 11.5 -82t47 -67.5t78.5 -48t106 -24.5q82 -7 116 -40q17 -17 20.5 -32t2.5 -22q-3 -27 -40 -47q-23 -13 -54 -18t-63 -2
q-43 4 -73 18.5t-46 31.5z" />
    <glyph glyph-name="T" unicode="T" horiz-adv-x="593" 
d="M400 0h-197v551h-176v199h549v-199h-176v-551v0zM243 39h118v552h176v119h-470v-119h176v-552v0z" />
    <glyph glyph-name="U" unicode="U" horiz-adv-x="707" 
d="M361 0q-44 0 -79 8t-62.5 20.5t-48.5 27.5t-36 30q-32 32 -49.5 67.5t-25.5 67t-10 55.5t-2 32v443h199v-445q0 -5 2.5 -23.5t13.5 -38.5q4 -8 10.5 -16t18 -15t28.5 -11t41 -4q55 0 80 25q9 9 14.5 21.5t8.5 25t4 22.5t1 15v3v2v439h198v-438q0 -8 -1 -32t-9 -56.5
t-24.5 -68.5t-47.5 -69q-15 -15 -35 -30t-47.5 -28t-62.5 -21t-79 -8zM88 711v-403q0 -5 1.5 -25t8.5 -48t22 -60.5t43 -60.5q13 -13 31 -26t42.5 -23.5t55.5 -17.5t69 -7t68.5 7t54.5 17.5t42 23.5t30 26q27 28 41.5 60t21 60t7.5 49.5t1 28.5v399h-118v-401v-1
q0 -9 -1.5 -23t-6 -30t-12.5 -31.5t-20 -28.5q-35 -38 -108 -38q-96 0 -134 68q-14 26 -17 50t-3 29l-2 68l2 -2v340h-119z" />
    <glyph glyph-name="V" unicode="V" horiz-adv-x="697" 
d="M425 0h-142l-260 750h210l123 -356l129 356h211l-271 -750v0zM311 39h86l243 671h-127l-158 -435l-150 435h-126l232 -671v0z" />
    <glyph glyph-name="W" unicode="W" horiz-adv-x="906" 
d="M678 0h-154l-65 270l-72 -270h-152l-201 751h205l72 -269l72 269h161l62 -256l69 256h205l-202 -751v0zM556 40h92l180 671h-122l-102 -375l-91 375h-100l-102 -382l-103 382h-122l179 -671h91l104 389l96 -389v0z" />
    <glyph glyph-name="X" unicode="X" horiz-adv-x="807" 
d="M801 0h-238l-141 203l-139 -203h-238l259 376l-256 374h239l135 -199l137 199h239l-256 -374l259 -376v0zM583 40h142l-230 336l228 334h-143l-158 -229l-157 229h-142l228 -334l-231 -336h143l159 233l161 -233v0z" />
    <glyph glyph-name="Y" unicode="Y" horiz-adv-x="767" 
d="M483 0h-197v344l-264 406h234l133 -205l153 205h246l-305 -409v-341v0zM325 40h118v314l266 356h-147l-175 -234l-152 234h-140l230 -354v-316v0z" />
    <glyph glyph-name="Z" unicode="Z" horiz-adv-x="686" 
d="M640 0h-585v219l314 338h-314v194h583v-192l-341 -364h341v-119h2v-76v0zM94 40h505v116h-392l392 419v136h-505v-115h366l-366 -393v-163v0z" />
    <glyph glyph-name="a" unicode="a" horiz-adv-x="723" 
d="M720 0h-210l-43 118h-187l-47 -118h-212l295 751h131l273 -751v0zM537 39h126l-243 672h-76l-265 -672h127l47 119h241l43 -119v0zM451 276h-152l79 200l73 -200v0zM358 316h37l-18 49l-19 -49v0z" />
    <glyph glyph-name="b" unicode="b" horiz-adv-x="702" 
d="M426 0h-371v751h376q42 -2 81.5 -16.5t71.5 -40.5q14 -11 28.5 -27.5t26.5 -38.5t19.5 -50.5t7.5 -63.5q0 -80 -42 -137q42 -59 42 -140q0 -32 -6 -58t-15.5 -46.5t-21 -36t-22.5 -26.5q-26 -26 -55 -40t-54.5 -20.5t-43.5 -8t-22 -1.5zM95 40h331q3 0 18.5 1t37 6.5
t46 17.5t45.5 33q18 19 35.5 52t17.5 87q0 76 -42 127l-10 13l10 12q42 51 42 125q0 52 -19.5 89t-49 60.5t-63.5 35t-63 12.5h-336v-671zM233 158h-19v158h214q8 0 21 -3t25 -10q34 -17 34 -66t-35 -66q-13 -8 -26 -10.5t-21 -2.5h-193zM254 198h171q4 0 13 1.5t17 6.5
q4 2 8.5 7.5t4.5 23.5t-4 23.5t-9 8.5q-8 4 -16 6t-12 2h-173v-79zM427 435h-213v158h214q3 0 17 -3t28 -11q35 -20 35 -65q0 -46 -35 -65q-14 -8 -28 -10.5t-17 -3.5h-1zM254 474h171l13 2.5t16 6.5q5 3 9.5 8.5t4.5 22.5t-4.5 22t-9.5 8q-8 5 -16 6.5l-13 2.5h-171v-79z
" />
    <glyph glyph-name="c" unicode="c" 
d="M410 0q-78 0 -146 29.5t-119 80.5t-80.5 119t-29.5 146t29.5 146t80.5 119t119 80.5t146 29.5q79 0 151.5 -32t126.5 -90l13 -16l-144 -129l-13 14q-26 29 -61 44.5t-73 15.5t-71 -14.5t-57.5 -39t-39 -58t-14.5 -70.5q0 -38 14.5 -71t39 -57.5t57.5 -39t71 -14.5
t73 15.5t61 44.5l13 15l144 -131l-13 -14q-54 -60 -126.5 -91.5t-151.5 -31.5zM410 711q-70 0 -131.5 -26.5t-107 -72t-72 -106.5t-26.5 -131q0 -69 26.5 -130.5t72 -107.5t107 -72.5t131.5 -26.5q66 0 127 25.5t108 71.5l-85 78q-31 -28 -69.5 -43t-80.5 -15
q-45 0 -85 17.5t-70 47.5t-47.5 70t-17.5 85t17.5 85t47.5 70t70 47.5t85 17.5q42 0 80.5 -15t69.5 -43l85 78q-47 46 -108 71t-127 25z" />
    <glyph glyph-name="d" unicode="d" horiz-adv-x="691" 
d="M289 0h-234v750h238q4 0 20.5 -1.5t41.5 -6t56 -14.5t64 -26q93 -48 142.5 -132t49.5 -194q0 -112 -50 -196t-145 -132q-33 -17 -64 -26.5t-56 -14t-42 -6t-20 -1.5h-1zM94 39h195q3 0 18 1.5t38 6t51.5 13.5t58.5 24q84 42 128.5 117t44.5 175q0 99 -44 174t-127 118
q-30 15 -58 23.5t-50.5 13t-37.5 5.5t-18 1h-199v-672zM286 155h-76v441h81q4 0 15.5 -1t27.5 -5t35 -10.5t39 -16.5q104 -57 104 -187q0 -133 -106 -188q-20 -11 -39.5 -17t-36 -9.5t-28 -5t-15.5 -1.5h-1zM249 194h36q3 0 13 1.5t24 4.5t31.5 8.5t34.5 14.5q85 44 85 153
q0 55 -20 92t-64 60q-17 9 -33.5 14.5t-30.5 8.5t-23.5 4t-12.5 1h-40v-362z" />
    <glyph glyph-name="e" unicode="e" horiz-adv-x="626" 
d="M585 0h-530v750h530v-193h-336v-84h205v-194h-205v-85h336v-194v0zM95 40h451v115h-336v163h205v115h-205v163h336v115h-451v-671v0z" />
    <glyph glyph-name="f" unicode="f" horiz-adv-x="594" 
d="M253 0h-198v750h542v-197h-344v-87h210v-197h-210v-269v0zM95 39h119v269h209v119h-209v166h344v118h-463v-672v0z" />
    <glyph glyph-name="g" unicode="g" horiz-adv-x="816" 
d="M412 0q-77 0 -145.5 29.5t-119.5 80.5t-80.5 119.5t-29.5 145.5q0 78 29.5 146t80.5 119t119.5 80.5t145.5 29.5q81 0 154 -32.5t127 -92.5l13 -15l-147 -130l-13 14q-26 29 -60.5 44.5t-73.5 15.5q-37 0 -69.5 -14t-56.5 -38.5t-38 -57t-14 -69.5t14 -69.5t38 -57
t56.5 -38.5t69.5 -14q47 0 86.5 21.5t63.5 59.5h-169v196h395v-98q0 -77 -29.5 -145.5t-80.5 -119.5t-119.5 -80.5t-146.5 -29.5zM412 711q-69 0 -130 -26.5t-107 -72t-72.5 -107t-26.5 -130.5t26.5 -130.5t72.5 -107t107 -72t130 -26.5q70 0 131 26.5t107 72t72.5 107
t26.5 130.5v59h-316v-118h192l-12 -27q-13 -30 -33.5 -54.5t-47 -41.5t-57 -26.5t-63.5 -9.5q-45 0 -84.5 17t-69 47t-46.5 69.5t-17 84.5t17 84.5t46.5 69.5t69 47t84.5 17q42 0 80.5 -15t68.5 -44l88 79q-47 48 -108 73t-129 25z" />
    <glyph glyph-name="h" unicode="h" 
d="M677 0h-198v272h-226v-272h-198v750h198v-280h226v280h198v-750v0zM519 40h118v670h-118v-280h-306v280h-118v-670h118v272h306v-272v0z" />
    <glyph glyph-name="i" unicode="i" horiz-adv-x="275" 
d="M254 0h-199v751h199v-751v0zM95 40h119v672h-119v-672v0z" />
    <glyph glyph-name="k" unicode="k" horiz-adv-x="812" 
d="M816 0h-276l-265 279l-17 -18v-261h-191v749h191v-205l196 206h269l-313 -330l406 -420v0zM557 39h167l-369 381l276 291h-161l-251 -265v264h-114v-671h114v238l56 59l282 -297v0z" />
    <glyph glyph-name="j" unicode="j" horiz-adv-x="555" 
d="M230 0q-127 0 -208 72l-15 13l130 145l14 -13q26 -23 79 -23q54 0 78 24q9 9 14.5 21.5t8.5 24.5t4 22t1 15v2v2v446h194v-445q0 -8 -1 -31.5t-8.5 -55t-24.5 -67t-47 -67.5q-14 -14 -34 -29t-47 -27.5t-61.5 -20.5t-76.5 -8zM63 89q67 -50 167 -50q37 0 67.5 6.5t54 17
t41 23.5t29.5 25q26 28 40 59t20.5 58.5t7.5 48.5t1 28v407h-116v-408v-2q0 -9 -1 -22.5t-5.5 -29t-12.5 -31t-20 -27.5q-34 -37 -106 -37q-55 0 -89 21z" />
    <glyph glyph-name="l" unicode="l" horiz-adv-x="596" 
d="M600 0h-545v751h197v-554h348v-197v0zM94 39h467v119h-348v554h-119v-673v0z" />
    <glyph glyph-name="m" unicode="m" horiz-adv-x="861" 
d="M806 0h-197v221l-106 -221h-136l-115 232v-232h-197v751h159l220 -441l212 441h160v-751v0zM649 39h118v673h-96l-237 -492l-244 492h-96v-673h118v361l179 -361h87l171 355v-355v0z" />
    <glyph glyph-name="n" unicode="n" horiz-adv-x="729" 
d="M682 0h-148l-280 371v-371h-199v750h162l267 -354v354h198v-750v0zM554 39h89v670h-120v-432l-326 432h-102v-670h119v450l340 -450v0z" />
    <glyph glyph-name="o" unicode="o" horiz-adv-x="826" 
d="M412 0q-78 0 -146 29.5t-119 80.5t-80.5 119t-29.5 146t29.5 146.5t80.5 119.5t119 80.5t146 29.5t146 -29.5t119 -80.5t80.5 -119.5t29.5 -146.5t-29.5 -146t-80.5 -119t-119 -80.5t-146 -29.5zM412 712q-70 0 -131.5 -26.5t-107 -72.5t-72 -107t-26.5 -131
q0 -69 26.5 -130.5t72 -107.5t107 -72.5t131.5 -26.5q69 0 130.5 26.5t107.5 72.5t72.5 107.5t26.5 130.5q0 70 -26.5 131t-72.5 107t-107.5 72.5t-130.5 26.5zM412 155q-45 0 -85 17.5t-70 47.5t-47.5 70t-17.5 85t17.5 85t47.5 70t70 47.5t85 17.5t85 -17.5t70 -47.5
t47.5 -70t17.5 -85t-17.5 -85t-47.5 -70t-70 -47.5t-85 -17.5zM412 557q-38 0 -70.5 -14.5t-57.5 -39t-39 -58t-14 -70.5q0 -38 14 -70.5t39 -57.5t57.5 -39t70.5 -14q37 0 70 14t58 39t39 57.5t14 70.5q0 37 -14 70.5t-39 58t-58 39t-70 14.5z" />
    <glyph glyph-name="p" unicode="p" horiz-adv-x="673" 
d="M250 0h-195v751l379 -1q36 -2 77 -16t76 -43t58.5 -73.5t23.5 -107.5q0 -36 -7.5 -64.5t-19.5 -50.5t-26.5 -38.5t-28.5 -28.5q-31 -25 -71.5 -39t-80.5 -16h-2h-183v-273zM94 39h117v273h224q29 1 63 12t63.5 35t49.5 61t20 90q0 52 -20 89.5t-50 62t-64.5 36.5
t-64.5 14h-338v-673zM432 428h-221v168l217 -1q5 0 18 -2.5t27 -10.5q40 -21 40 -72q0 -32 -11 -46.5t-23 -21.5q-16 -8 -30.5 -10.5t-16.5 -3.5zM250 468h180q4 0 13 2t17 7q5 3 10 8.5t5 24.5q0 17 -5 24t-15 12q-9 5 -18 7t-13 3h-174v-88z" />
    <glyph glyph-name="q" unicode="q" horiz-adv-x="842" 
d="M670 -15l-71 68q-88 -53 -191 -53q-78 0 -146.5 29.5t-119.5 80.5t-80.5 119.5t-29.5 145.5q0 78 29.5 146t80.5 119t119.5 80.5t146.5 29.5q77 0 145 -29.5t119 -80.5t80.5 -119t29.5 -146q0 -100 -48 -184l70 -67zM408 711q-70 0 -131.5 -26.5t-107 -72t-72 -107
t-26.5 -130.5q0 -70 26.5 -131t72 -106.5t107 -72t131.5 -26.5q49 0 95 14t88 40l13 9l65 -62l80 83l-64 62l9 14q49 80 49 176q0 69 -26.5 130.5t-72 107t-106.5 72t-130 26.5zM408 155q-46 0 -86 17t-70 47t-47.5 70t-17.5 86q0 45 17.5 85t47.5 70t70 47.5t86 17.5
q45 0 85 -17.5t70 -47.5t47.5 -70t17.5 -85q0 -42 -17 -82l-10 -26l-104 99l-80 -84l102 -99l-27 -11q-38 -17 -84 -17zM408 556q-38 0 -71 -14t-57.5 -39t-39 -58t-14.5 -70q0 -38 14.5 -71t39 -57.5t57.5 -39t71 -14.5q10 0 20 2l20 4l-86 82l134 140l88 -85q2 9 3 19
t1 20q0 37 -14 70t-38.5 58t-57.5 39t-70 14z" />
    <glyph glyph-name="r" unicode="r" horiz-adv-x="745" 
d="M728 0h-217l-138 274h-123v-274h-195v751h379q36 -2 77 -16t76.5 -43t59 -74t23.5 -108t-26 -112.5t-75 -81.5zM534 39h131l-147 292l16 9q16 9 33.5 23t31 34.5t22.5 48.5t9 64q0 52 -19.5 90t-49 62t-64.5 36t-65 14h-338v-673h117v273h186zM431 429h-220v167h217
q4 -1 17.5 -4t27.5 -11q22 -11 31.5 -28t9.5 -43q0 -32 -11 -46t-23 -21q-17 -8 -31.5 -10.5t-16.5 -3.5h-1zM250 468h180q4 0 13 2t17 7q5 3 10 8.5t5 24.5q0 17 -5 24.5t-15 12.5t-18.5 7l-12.5 3h-174v-89z" />
    <glyph glyph-name="s" unicode="s" horiz-adv-x="659" 
d="M337 0h-19t-20 2q-80 8 -145 43t-102 91l-10 16l162 106l10 -16q11 -14 37.5 -28.5t66.5 -18.5q26 -2 51.5 1.5t42.5 13.5q11 6 15 10.5t5 6.5q0 3 -1.5 8.5t-8.5 12.5q-8 8 -29 17.5t-65 13.5q-68 6 -121.5 28.5t-90 57t-54 79.5t-12.5 98t36 96.5t84 72.5q74 40 167 40
q9 0 18.5 -0.5t20.5 -1.5q80 -8 145 -43.5t102 -91.5l10 -16l-162 -105l-11 16q-10 14 -36.5 28t-66.5 18q-26 3 -51.5 -1t-43.5 -14q-11 -5 -15 -10t-4 -6q-1 -11 9 -19.5t25.5 -15.5t34.5 -11.5t35 -5.5q69 -7 123 -29t90 -56.5t53 -79.5t12 -99q-5 -52 -36.5 -96
t-83.5 -72q-36 -20 -78.5 -30t-88.5 -10zM95 142q33 -42 87.5 -68.5t120.5 -32.5q8 -1 17 -1.5t17 -0.5q83 0 148 35q45 23 70.5 59t29.5 79q4 45 -11 83t-46.5 66.5t-78.5 47t-107 24.5q-21 2 -46 8t-46.5 17.5t-35 28.5t-11.5 41q3 25 40 47q23 12 53.5 17.5t62.5 2.5
q44 -5 73.5 -19t46.5 -31l98 64q-32 42 -86.5 68.5t-120.5 32.5q-8 1 -17 1.5t-17 0.5q-84 0 -149 -35q-44 -23 -69.5 -59.5t-29.5 -78.5q-4 -44 11.5 -82t47 -67.5t78.5 -48t106 -24.5q82 -7 116 -40q17 -17 20.5 -32t2.5 -22q-3 -27 -40 -47q-23 -13 -54 -18t-63 -2
q-43 4 -73 18.5t-46 31.5z" />
    <glyph glyph-name="t" unicode="t" horiz-adv-x="593" 
d="M400 0h-197v551h-176v199h549v-199h-176v-551v0zM243 39h118v552h176v119h-470v-119h176v-552v0z" />
    <glyph glyph-name="u" unicode="u" horiz-adv-x="707" 
d="M361 0q-44 0 -79 8t-62.5 20.5t-48.5 27.5t-36 30q-32 32 -49.5 67.5t-25.5 67t-10 55.5t-2 32v443h199v-445q0 -5 2.5 -23.5t13.5 -38.5q4 -8 10.5 -16t18 -15t28.5 -11t41 -4q55 0 80 25q9 9 14.5 21.5t8.5 25t4 22.5t1 15v3v2v439h198v-438q0 -8 -1 -32t-9 -56.5
t-24.5 -68.5t-47.5 -69q-15 -15 -35 -30t-47.5 -28t-62.5 -21t-79 -8zM88 711v-403q0 -5 1.5 -25t8.5 -48t22 -60.5t43 -60.5q13 -13 31 -26t42.5 -23.5t55.5 -17.5t69 -7t68.5 7t54.5 17.5t42 23.5t30 26q27 28 41.5 60t21 60t7.5 49.5t1 28.5v399h-118v-401v-1
q0 -9 -1.5 -23t-6 -30t-12.5 -31.5t-20 -28.5q-35 -38 -108 -38q-96 0 -134 68q-14 26 -17 50t-3 29l-2 68l2 -2v340h-119z" />
    <glyph glyph-name="v" unicode="v" horiz-adv-x="697" 
d="M425 0h-142l-260 750h210l123 -356l129 356h211l-271 -750v0zM311 39h86l243 671h-127l-158 -435l-150 435h-126l232 -671v0z" />
    <glyph glyph-name="w" unicode="w" horiz-adv-x="906" 
d="M678 0h-154l-65 270l-72 -270h-152l-201 751h205l72 -269l72 269h161l62 -256l69 256h205l-202 -751v0zM556 40h92l180 671h-122l-102 -375l-91 375h-100l-102 -382l-103 382h-122l179 -671h91l104 389l96 -389v0z" />
    <glyph glyph-name="x" unicode="x" horiz-adv-x="807" 
d="M801 0h-238l-141 203l-139 -203h-238l259 376l-256 374h239l135 -199l137 199h239l-256 -374l259 -376v0zM583 40h142l-230 336l228 334h-143l-158 -229l-157 229h-142l228 -334l-231 -336h143l159 233l161 -233v0z" />
    <glyph glyph-name="y" unicode="y" horiz-adv-x="767" 
d="M483 0h-197v344l-264 406h234l133 -205l153 205h246l-305 -409v-341v0zM325 40h118v314l266 356h-147l-175 -234l-152 234h-140l230 -354v-316v0z" />
    <glyph glyph-name="z" unicode="z" horiz-adv-x="686" 
d="M640 0h-585v219l314 338h-314v194h583v-192l-341 -364h341v-119h2v-76v0zM94 40h505v116h-392l392 419v136h-505v-115h366l-366 -393v-163v0z" />
    <glyph glyph-name="exclam" unicode="!" horiz-adv-x="285" 
d="M232 230h-181v520h181v-520zM92 272h98v436h-98v-436zM149 0q-20 0 -37 7.5t-29.5 20t-20 30t-7.5 37.5q0 19 7.5 36.5t20 30t29.5 20t37 7.5t37.5 -7.5t30 -20t20 -30t7.5 -36.5q0 -40 -27.5 -67.5t-67.5 -27.5zM149 149q-22 0 -38 -16t-16 -38q0 -23 16 -39t38 -16
q23 0 38.5 16t15.5 39q0 22 -15.5 38t-38.5 16z" />
    <glyph glyph-name="quotedbl" unicode="&#x22;" horiz-adv-x="455" 
d="M142 474h-117l55 77q-24 14 -39 39t-15 54q0 22 8.5 41.5t23 34t34 23t41.5 8.5t41.5 -8.5t34 -23t23 -34t8.5 -41.5q0 -28 -13 -51l-1 -2q-7 -12 -13 -18zM104 515h17l61 84q6 8 10 14v1q7 13 7 30q0 27 -19 46.5t-47 19.5q-27 0 -46.5 -19.5t-19.5 -46.5
q0 -23 14 -40.5t36 -23.5l28 -7zM362 474h-118l56 77q-25 14 -39.5 39t-14.5 54q0 22 8.5 41.5t23 34t34 23t41.5 8.5t41.5 -8.5t34 -23t23 -34t8.5 -41.5q0 -25 -13 -51l-1 -2q-7 -12 -14 -18zM324 515h17l61 84q2 4 4.5 7t4.5 7l1 1q7 13 7 30q0 27 -19.5 46.5t-46.5 19.5
t-46.5 -19.5t-19.5 -46.5q0 -23 13.5 -40.5t35.5 -23.5l29 -7z" />
    <glyph glyph-name="numbersign" unicode="#" horiz-adv-x="969" 
d="M630 1h-228l43 127h-83l-42 -127h-228l43 127h-105v215h178l20 60h-81v216h154l44 131h227l-44 -131h83l44 131h228l-45 -131h94v-216h-167l-20 -60h71v-215h-144l-42 -127v0zM459 42h141l43 127h131v134h-86l48 141h155v134h-111l46 131h-141l-45 -131h-169l45 131h-142
l-44 -131h-142v-134h97l-48 -141h-166v-134h121l-43 -127h141l43 127h169l-43 -127v0zM547 303h-169l48 141h169l-48 -141v0zM435 343h83l20 60h-83l-20 -60v0z" />
    <glyph glyph-name="dollar" unicode="$" horiz-adv-x="698" 
d="M461 -55h-211v53q-59 14 -110.5 42t-94.5 69l-19 19l148 146l18 -17q24 -24 58 -41v71q-113 29 -168.5 91.5t-47.5 156.5q3 44 24.5 83t58.5 70q26 21 60.5 36.5t72.5 24.5v48h211v-51q60 -13 111.5 -40.5t93.5 -68.5l19 -19l-147 -146l-19 17q-13 14 -27 23t-31 17v-70
q113 -29 168.5 -92t49.5 -156q-4 -44 -25.5 -83.5t-59.5 -68.5q-27 -22 -59.5 -37.5t-73.5 -25.5v-51zM283 -22h145v47l13 3q40 7 73.5 21.5t59.5 34.5q32 26 49.5 59t20.5 70q13 166 -203 216l-13 3v145l22 -7q49 -17 88 -52l99 100q-39 38 -89 63t-107 36l-13 2v45h-145
v-43l-13 -3q-78 -14 -131 -57q-33 -26 -51 -59t-21 -70q-14 -166 204 -216l12 -3v-146l-22 9q-48 17 -87 52l-99 -100q39 -38 88.5 -63t106.5 -36l13 -2v-49zM428 167v121l22 -8q37 -13 46.5 -28t8.5 -29q-2 -9 -8.5 -16.5t-11.5 -12.5q-11 -9 -35 -19zM461 238v-21q1 3 4 4
q3 2 4 3.5t2 2.5q0 2 -1.5 5t-8.5 6zM283 458l-22 7q-19 6 -30 14t-16 15.5t-6.5 15t-0.5 13.5q1 7 4.5 14t12.5 15q8 5 16 9.5t19 9.5l23 8v-121zM241 519q0 -2 1.5 -5t7.5 -7v21l-4 -2l-3 -4.5t-2 -2.5z" />
    <glyph glyph-name="percent" unicode="%" horiz-adv-x="784" 
d="M240 428q-32 0 -60.5 12.5t-49.5 33.5t-33 49.5t-12 60.5t12 60.5t33 49.5t49.5 33t60.5 12t60.5 -12t49.5 -33t33.5 -49.5t12.5 -60.5t-12.5 -60.5t-33.5 -49.5t-49.5 -33.5t-60.5 -12.5zM240 700q-24 0 -45.5 -9t-37 -25t-25 -37t-9.5 -45t9.5 -45.5t25 -37t37 -24.5
t45.5 -9t45 9t37 24.5t25 37t9 45.5t-9 45t-25 37t-37 25t-45 9zM240 513q-29 0 -49.5 21t-20.5 50t20.5 49.5t49.5 20.5t49.5 -20.5t20.5 -49.5t-20.5 -50t-49.5 -21zM240 614q-13 0 -21.5 -8.5t-8.5 -21.5q0 -14 8.5 -22.5t21.5 -8.5q14 0 22.5 8.5t8.5 22.5
q0 13 -8.5 21.5t-22.5 8.5zM595 0q-32 0 -60.5 12.5t-49.5 33.5t-33.5 49.5t-12.5 60.5t12.5 60t33.5 49t49.5 33.5t60.5 12.5t60.5 -12.5t50 -33.5t34 -49t12.5 -60t-12.5 -60.5t-34 -49.5t-50 -33.5t-60.5 -12.5zM595 271q-24 0 -45 -9t-37 -24.5t-25 -36.5t-9 -45
t9 -45.5t25 -37t37 -25t45 -9.5t45.5 9.5t37.5 25t25 37t9 45.5t-9 45t-25 36.5t-37.5 24.5t-45.5 9zM595 85q-29 0 -49 21t-20 50t20 49.5t49 20.5t49.5 -20.5t20.5 -49.5t-20.5 -50t-49.5 -21zM595 186q-12 0 -21 -8.5t-9 -21.5q0 -14 9 -22.5t21 -8.5q13 0 22.5 8.5
t9.5 22.5q0 13 -9.5 21.5t-22.5 8.5zM238 -3h-198l542 754h198zM117 37h101l486 676h-102z" />
    <glyph glyph-name="ampersand" unicode="&#x26;" horiz-adv-x="769" 
d="M522 -1l-35 40q-35 -20 -76 -29.5t-85 -9.5q-61 0 -113.5 18.5t-91.5 50t-61.5 74.5t-22.5 93q0 57 29 105.5t81 80.5q-14 26 -22 53t-8 56q0 46 17 86t47 69.5t69.5 46.5t84.5 17t85 -17t70 -46.5t47 -69.5t17 -86q0 -51 -21.5 -95t-61.5 -76l30 -35l90 79l136 -155
l-93 -81l142 -168zM335 710q-36 0 -68.5 -14t-57 -38.5t-38.5 -57t-14 -69.5q0 -27 8.5 -53.5t25.5 -49.5l14 -19l-20 -11q-51 -27 -79.5 -70t-28.5 -92q0 -41 19.5 -77t53 -62.5t79 -41.5t97.5 -15q88 0 155 41l14 9l44 -50h151l-112 132l92 80l-82 95l-91 -80l-86 102
l19 12q40 25 61.5 64.5t21.5 85.5q0 37 -14 69.5t-38 57t-56.5 38.5t-69.5 14zM326 164q-52 0 -78 10.5t-40 39.5q-7 14 -4 26.5t11 23t19.5 18t21.5 12.5l37 23l120 -135l-30 -9q-26 -9 -57 -9zM285 266l-10 -6q-18 -11 -25 -18.5t-5 -9.5q3 -6 7 -11.5t12.5 -9t23 -5.5
t38.5 -2q3 0 6.5 0.5t6.5 0.5zM335 477q-22 0 -38 16t-16 38q0 23 16 39t38 16q23 0 39 -16t16 -39q0 -22 -16 -38t-39 -16zM335 546q-5 0 -9.5 -4t-4.5 -11q0 -5 4.5 -9t9.5 -4q6 0 10.5 4t4.5 9q0 7 -4.5 11t-10.5 4z" />
    <glyph glyph-name="quotesingle" unicode="'" horiz-adv-x="349" 
d="M132 472h-118l56 77q-25 14 -39.5 39t-14.5 54q0 22 8.5 41.5t23 34t34 23t41.5 8.5t41.5 -8.5t34 -23t23 -34t8.5 -41.5q0 -25 -13 -51l-1 -2q-7 -12 -14 -18zM94 513h17l61 84q7 8 9 14l1 1q7 13 7 30q0 27 -19.5 46.5t-46.5 19.5t-46.5 -19.5t-19.5 -46.5
q0 -23 13.5 -40.5t35.5 -23.5l29 -7z" />
    <glyph glyph-name="parenleft" unicode="(" horiz-adv-x="321" 
d="M128 -69l-8 17q-42 94 -62.5 201t-20.5 222q0 89 14 168t31 139t31.5 96.5t15.5 39.5l9 18l197 -86l-10 -18q-39 -73 -60 -165t-21 -192q0 -98 20.5 -188.5t58.5 -163.5l11 -20zM158 777q-8 -20 -21.5 -59.5t-27 -93t-23 -118.5t-9.5 -135q0 -106 18.5 -204t54.5 -186
l125 42q-34 73 -53 163t-19 185q0 98 19.5 189t56.5 166z" />
    <glyph glyph-name="parenright" unicode=")" horiz-adv-x="321" 
d="M232 -70l-203 70l11 21q39 72 59.5 162t20.5 189q0 100 -21 191t-60 165l-11 20l198 84l8 -18q2 -3 16.5 -41t31.5 -98.5t30.5 -139t13.5 -163.5q0 -38 -6 -83.5t-15.5 -91t-20.5 -89t-21 -78l-16.5 -56t-7.5 -24.5zM87 22l119 -40l20.5 70.5t27 102t23 113.5t9.5 104
q0 67 -9.5 131t-23 118t-27.5 95t-22 62l-120 -51q37 -75 56.5 -165.5t19.5 -189.5q0 -96 -19 -185t-54 -165z" />
    <glyph glyph-name="asterisk" unicode="*" horiz-adv-x="403" 
d="M243 439h-105v64l-56 -32l-53 91l57 32l-56 33l52 91l56 -32v64h105v-64l57 32l52 -91l-56 -33l56 -32l-52 -91l-57 32v-64v0zM172 472h38v90l77 -45l19 33l-77 44l77 45l-19 33l-77 -45v90h-38v-90l-78 45l-18 -33l77 -45l-77 -44l18 -33l78 45v-90v0z" />
    <glyph glyph-name="plus" unicode="+" horiz-adv-x="410" 
d="M304 183h-172v108h-108v172h108v108h172v-108h108v-172h-108v-108v0zM173 224h90v108h108v90h-108v108h-90v-108h-108v-90h108v-108v0z" />
    <glyph glyph-name="comma" unicode="," horiz-adv-x="226" 
d="M141 -69h-105l49 69q-22 13 -35 34.5t-13 47.5q0 40 28 68t68 28q19 0 36.5 -7.5t30.5 -20.5t20.5 -30.5t7.5 -37.5q0 -23 -11 -45q-3 -5 -6 -9l-7 -9zM107 -33h15l54 76q6 4 9 12q7 14 7 27q0 25 -17.5 42t-41.5 17q-25 0 -42 -17t-17 -42q0 -20 12 -36t32 -21l26 -6z
" />
    <glyph glyph-name="hyphen" unicode="-" horiz-adv-x="472" 
d="M444 304h-389v181h389v-181v0zM96 345h307v99h-307v-99v0z" />
    <glyph glyph-name="period" unicode="." horiz-adv-x="255" 
d="M143 0q-22 0 -41 8t-33.5 22.5t-22.5 33.5t-8 41t8 41t22.5 33t33.5 22.5t41 8.5q21 0 40 -8.5t33.5 -22.5t22.5 -33t8 -41t-8 -41t-22.5 -33.5t-33.5 -22.5t-40 -8zM143 170q-27 0 -46 -19t-19 -46t19 -46t46 -19q26 0 45 19t19 46t-19 46t-45 19z" />
    <glyph glyph-name="slash" unicode="/" horiz-adv-x="533" 
d="M195 -2h-187l368 750h187l-368 -750v0zM75 39h94l327 668h-94l-327 -668v0z" />
    <glyph glyph-name="zero" unicode="0" horiz-adv-x="676" 
d="M342 0q-63 0 -118 29.5t-96.5 80.5t-65.5 119t-24 146t24 146t65.5 119t96.5 80.5t118 29.5t119 -29.5t97 -80.5t65 -119t24 -146t-24 -146t-65 -119t-97 -80.5t-119 -29.5zM342 711q-55 0 -103 -26.5t-84 -72t-57 -106.5t-21 -131t21 -131t57 -106.5t84 -72t103 -26.5
t104 26.5t85 72t57 106.5t21 131t-21 131t-57 106.5t-85 72t-104 26.5zM342 155q-31 0 -58 17t-47.5 47t-32 70t-11.5 86t11.5 86t32 70t47.5 47t58 17t59 -17t48 -47t32 -70t12 -86t-12 -86t-32 -70t-48 -47t-59 -17zM342 557q-22 0 -42 -15t-35.5 -40t-24.5 -58t-9 -69
t9 -69t24.5 -58t35.5 -40t42 -15t42.5 15t36 40t24.5 58t9 69t-9 69t-24.5 58t-36 40t-42.5 15z" />
    <glyph glyph-name="one" unicode="1" horiz-adv-x="360" 
d="M333 0h-191v527l-99 -17l-30 190l320 51v-751v0zM180 38h115v669l-237 -39l18 -113l104 16v-533v0z" />
    <glyph glyph-name="two" unicode="2" horiz-adv-x="637" 
d="M603 0h-562v178l320 293l-1 1l14 12q18 15 24 22.5t8 9.5q0 10 -8 18q-11 11 -32.5 17t-47.5 6q-33 -1 -61 -9t-44 -22l-15 -12l-124 148l15 13q42 35 99.5 54t124.5 21q66 2 123.5 -19t96.5 -59q66 -64 66 -158q0 -79 -67 -147h1l-14 -13l-174 -161h258v-193zM80 39h484
v116h-319l248 228q68 62 68 131q0 77 -55 130q-34 33 -84 51t-108 16q-54 -1 -101.5 -15t-83.5 -39l75 -90q45 26 113 28q34 1 62.5 -8t45.5 -26q20 -20 20 -47q0 -7 -6.5 -19t-32.5 -34l-6 -6l-320 -294v-122z" />
    <glyph glyph-name="three" unicode="3" horiz-adv-x="641" 
d="M300 0q-72 0 -137 25.5t-111 71.5l-14 14l137 136l14 -13q19 -20 48 -30.5t63 -10.5q27 0 51 6.5t42 18t28.5 26t10.5 30.5t-10.5 31t-28.5 26.5t-42 18t-51 6.5q-24 0 -48 -6l-15 -4l-85 158l57 53h-114v193h435v-162l-80 -70q80 -35 127.5 -100t47.5 -144
q0 -57 -25.5 -106.5t-69.5 -87t-103.5 -59t-126.5 -21.5zM93 111q41 -35 94 -53.5t113 -18.5q59 0 111 18.5t91 50.5t61.5 74.5t22.5 91.5q0 37 -12.5 70.5t-36 62t-56.5 50.5t-74 36l-32 11l116 102v105h-358v-116h175l-108 -99l57 -106q11 2 21.5 3t21.5 1q35 0 66 -9.5
t54 -25.5t36.5 -38t13.5 -47t-13.5 -46.5t-36.5 -37.5t-54 -25.5t-66 -9.5t-67.5 10t-56.5 29z" />
    <glyph glyph-name="four" unicode="4" horiz-adv-x="588" 
d="M507 0h-196v136h-299v183l322 433h173v-420h54v-196h-54v-136v0zM350 39h117v137h55v117h-55v419h-114l-302 -406v-130h299v-137v0zM350 293h-162l162 220v-220v0zM265 332h46v63l-46 -63v0z" />
    <glyph glyph-name="five" unicode="5" horiz-adv-x="643" 
d="M310 0q-73 0 -136.5 28t-107.5 79l-13 15l147 126l12 -15q17 -19 42.5 -29.5t55.5 -10.5q23 0 44 6.5t36.5 18t25 26t9.5 30.5t-9.5 31t-25 26.5t-36.5 18t-44 6.5t-43 -6.5t-36 -17.5l-3 -11l-18 3l-171 30l68 396h451v-193h-288l-2 -11q21 3 42 3q64 0 120 -21.5
t98 -59t66 -87.5t24 -107t-24 -106.5t-66 -87t-98 -59t-120 -21.5zM108 118q38 -38 90.5 -58.5t111.5 -20.5q56 0 105 18.5t86 50.5t58 74.5t21 91.5t-21 92t-58 75t-86 50.5t-105 18.5q-32 0 -62 -6l-28 -6l17 97h283v116h-381l-56 -326l125 -21q44 30 102 30q31 0 59 -9.5
t49 -26t33.5 -38t12.5 -46.5q0 -24 -12.5 -46t-33.5 -38t-49 -25.5t-59 -9.5q-32 0 -61.5 10t-51.5 29z" />
    <glyph glyph-name="six" unicode="6" horiz-adv-x="659" 
d="M332 0q-63 0 -118.5 21t-96.5 58t-65 86t-24 105q0 71 39 133l11 15l233 332h237l-152 -216q52 -10 96.5 -34t76.5 -59t50 -79t18 -92q0 -56 -24 -105t-65.5 -86t-97 -58t-118.5 -21zM120 412l1 -1l-12 -15q-42 -57 -42 -126q0 -48 21 -90t57 -73.5t84 -49.5t103 -18
t103.5 18t84.5 49.5t57 73.5t21 90q0 45 -18 84.5t-50 70.5t-75 50.5t-94 24.5l-35 3l148 208h-143zM332 155q-30 0 -57.5 9t-47.5 25t-32 36.5t-12 44.5t12 44.5t32 36.5t47.5 25t57.5 9q31 0 58 -9t47.5 -25t32.5 -36.5t12 -44.5t-12 -44.5t-32.5 -36.5t-47.5 -25t-58 -9z
M332 347q-22 0 -42 -6.5t-35.5 -17t-24.5 -24.5t-9 -29t9 -29t24.5 -24.5t35.5 -17t42 -6.5t42.5 6.5t36 17t24.5 24.5t9 29t-9 29t-24.5 24.5t-36 17t-42.5 6.5z" />
    <glyph glyph-name="seven" unicode="7" horiz-adv-x="577" 
d="M265 0h-224l313 557h-252v195h485v-179l-322 -573v0zM108 39h134l306 544v130h-408v-118h280l-312 -556v0z" />
    <glyph glyph-name="eight" unicode="8" horiz-adv-x="650" 
d="M329 0q-61 0 -114.5 20.5t-93 55.5t-62.5 82.5t-23 101.5q0 53 22.5 100.5t64.5 85.5q-13 22 -20 46t-7 50q0 43 18.5 80.5t50 66t74 45t90.5 16.5t90 -16.5t73.5 -45t50 -66t18.5 -80.5q0 -53 -27 -96q42 -38 65 -85.5t23 -100.5q0 -54 -23 -101.5t-63 -82.5t-93 -55.5
t-114 -20.5zM329 712q-40 0 -75.5 -13.5t-62 -36.5t-42 -54t-15.5 -66q0 -49 29 -89l11 -16l-15 -11q-42 -32 -64 -75t-22 -91q0 -46 20 -86.5t55 -71t81.5 -48t99.5 -17.5q52 0 98.5 17.5t81.5 48t55 71t20 86.5q0 48 -22 91t-64 75l-14 11l10 16q30 41 30 89
q0 35 -15.5 66t-42 54t-62 36.5t-75.5 13.5zM329 150q-29 0 -55.5 8.5t-46 23.5t-31 35t-11.5 43q0 22 11.5 42t31 35t46 24t55.5 9t55 -9t45.5 -24t31 -35t11.5 -42q0 -23 -11.5 -43t-31 -35t-45.5 -23.5t-55 -8.5zM329 333q-21 0 -40.5 -6t-34.5 -16t-23.5 -23t-8.5 -28
t8.5 -28t23.5 -23t34.5 -16t40.5 -6t40 6t34 16t23.5 23t8.5 28t-8.5 28t-23.5 23t-34 16t-40 6zM329 490q-35 0 -56 16.5t-21 35.5t21 35.5t56 16.5q34 0 55 -16.5t21 -35.5t-21 -35.5t-55 -16.5zM290 542q2 -3 12 -8.5t27 -5.5t26.5 5.5t11.5 8.5q-2 4 -11.5 9.5
t-26.5 5.5t-27 -5.5t-12 -9.5z" />
    <glyph glyph-name="nine" unicode="9" horiz-adv-x="660" 
d="M356 0h-237l152 216q-52 10 -96 34t-76 59t-50 79t-18 92q0 56 24 105t65 86t96.5 58t118.5 21t118.5 -21t97 -58t65.5 -86t24 -105q0 -35 -10 -68t-29 -65l-11 -15zM194 39h142l212 299l-1 1l12 15q20 29 31 61t11 65q0 48 -21 90t-57 73.5t-84.5 49.5t-103.5 18
t-103.5 -18t-84.5 -49.5t-57 -73.5t-21 -90q0 -45 18 -84.5t50 -70.5t75.5 -51t94.5 -24l33 -3zM335 365q-30 0 -57.5 9t-48 25t-32.5 37t-12 44q0 24 12 44.5t32.5 36.5t48 25t57.5 9q31 0 58 -9t47.5 -25t32.5 -36.5t12 -44.5q0 -23 -12 -44t-32.5 -37t-47.5 -25t-58 -9z
M335 557q-22 0 -42 -6.5t-35.5 -17t-24.5 -24.5t-9 -29t9 -29t24.5 -24.5t35.5 -16.5t42 -6t42 6t35.5 16.5t24.5 24.5t9 29t-9 29t-24.5 24.5t-35.5 17t-42 6.5z" />
    <glyph glyph-name="colon" unicode=":" horiz-adv-x="263" 
d="M147 401q-22 0 -41.5 8.5t-34 23t-23 34t-8.5 41.5t8.5 41.5t23 34t34 23t41.5 8.5t41.5 -8.5t34 -23t23 -34t8.5 -41.5t-8.5 -41.5t-23 -34t-34 -23t-41.5 -8.5zM147 574q-27 0 -46.5 -19.5t-19.5 -46.5q0 -28 19.5 -47t46.5 -19q28 0 47 19t19 47q0 27 -19 46.5
t-47 19.5zM147 137q-22 0 -41.5 8.5t-34 23t-23 33.5t-8.5 41t8.5 41.5t23 34t34 23t41.5 8.5t41.5 -8.5t34 -23t23 -34t8.5 -41.5t-8.5 -41t-23 -33.5t-34 -23t-41.5 -8.5zM147 310q-27 0 -46.5 -19.5t-19.5 -47.5q0 -27 19.5 -46.5t46.5 -19.5q28 0 47 19.5t19 46.5
q0 28 -19 47.5t-47 19.5z" />
    <glyph glyph-name="semicolon" unicode=";" horiz-adv-x="249" 
d="M144 383q-22 0 -41.5 8.5t-34 23t-23 34t-8.5 41.5t8.5 41.5t23 34t34 23t41.5 8.5t41.5 -8.5t34 -23t23 -34t8.5 -41.5t-8.5 -41.5t-23 -34t-34 -23t-41.5 -8.5zM144 556q-27 0 -46.5 -19.5t-19.5 -46.5q0 -28 19.5 -47t46.5 -19q28 0 47 19t19 47q0 27 -19 46.5
t-47 19.5zM153 56h-118l56 77q-25 14 -39.5 39t-14.5 54q0 22 8.5 41t23 33.5t34 23t41.5 8.5t41.5 -8.5t34 -23t23 -33.5t8.5 -41q0 -29 -13 -51l-6 -10.5t-8 -10.5zM115 97h17l61 84q5 5 9 13q8 13 8 32q0 27 -19 46.5t-47 19.5q-27 0 -46.5 -19.5t-19.5 -46.5
q0 -23 13.5 -41t36.5 -23l28 -8z" />
    <glyph glyph-name="less" unicode="&#x3c;" horiz-adv-x="530" 
d="M487 3l-483 198v101l483 198v-160l-217 -88l217 -89v-160v0zM44 227l403 -166v75l-280 116l280 115v75l-403 -166v-49v0z" />
    <glyph glyph-name="equal" unicode="=" horiz-adv-x="473" 
d="M444 396h-389v172h389v-172v0zM96 437h307v90h-307v-90v0zM444 177h-389v179h389v-179v0zM96 218h307v98h-307v-98v0z" />
    <glyph glyph-name="greater" unicode="&#x3e;" horiz-adv-x="531" 
d="M55 3v160l217 89l-217 88v160l483 -198v-101l-483 -198v0zM95 136v-75l403 166v49l-403 166v-75l280 -115l-280 -116v0z" />
    <glyph glyph-name="question" unicode="?" horiz-adv-x="538" 
d="M274 1q-20 0 -37 7.5t-29.5 20t-20 29.5t-7.5 37q0 19 7.5 36.5t20 30t29.5 20t37 7.5q40 0 67 -27.5t27 -66.5t-27 -66.5t-67 -27.5zM274 150q-23 0 -39 -16t-16 -39t16 -39t39 -16t39 16t16 39t-16 39t-39 16zM354 240h-174v44q0 36 11.5 65.5t29.5 53.5t40.5 43
t44.5 34q18 12 27.5 21t14 16.5t5.5 14t1 11.5q0 3 -3.5 9t-12.5 12t-25 10t-42 4q-24 0 -39 -8.5t-23.5 -19t-12 -19.5t-3.5 -10l-4 -16l-171 18l2 19q3 27 17 63.5t43.5 69t76 55t114.5 22.5q76 0 126 -22.5t79 -55t41 -68.5t12 -63q0 -65 -30.5 -115t-94.5 -94
q-19 -12 -29 -20.5t-14.5 -14.5t-5.5 -9.5t-1 -5.5v-44zM219 279h95v5q0 18 13 36.5t54 46.5q109 72 109 176q0 22 -10 51t-35 55.5t-67.5 44.5t-106.5 18q-52 0 -88.5 -15.5t-61.5 -38.5t-38.5 -50t-19.5 -50l98 -11q5 12 14 24t22.5 22.5t31.5 17t42 6.5q36 0 60 -7.5
t38 -19t19.5 -24.5t5.5 -23t-1.5 -20.5t-8.5 -22.5t-20 -25.5t-35 -28.5q-21 -14 -41 -30t-35.5 -35.5t-24.5 -43.5t-9 -53v-5z" />
    <glyph glyph-name="at" unicode="@" horiz-adv-x="825" 
d="M422 0q-83 0 -154.5 28t-124.5 82q-51 52 -78 120t-27 145q0 79 29.5 147.5t81.5 119t122 79.5t151 29q77 0 145 -29.5t119 -80.5t80.5 -119t29.5 -146q0 -61 -20 -121v-1q-10 -23 -25 -45.5t-35.5 -40t-47 -28.5t-57.5 -11q-5 0 -8 1q-5 0 -8.5 0.5t-7.5 0.5l36 -72
l-32 -17q-80 -41 -169 -41zM422 710q-74 0 -137 -25.5t-109.5 -70.5t-72.5 -106t-26 -133q0 -73 26 -134.5t71.5 -106t109 -69.5t138.5 -25q77 0 147 35l-34 69q-28 -13 -56 -20t-57 -7q-62 0 -113.5 19t-89 53.5t-58 81.5t-20.5 104t20.5 104.5t58 82t89 53.5t113.5 19
q42 0 83 -15t75 -41v7l21 -23l26 -22h-8q29 -35 45 -77.5t16 -87.5q0 -41 -13 -77l-1 -4q-25 -50 -54 -50h-2q-25 2 -29 30l-1 7v259h-74v-35l-31 15q-35 20 -77 20q-34 0 -64 -13t-52.5 -35t-35.5 -52.5t-13 -64.5t13 -64t35.5 -52.5t52.5 -35.5t64 -13q48 0 88 26l20 12
l9 -20q14 -29 36 -43l5 -3q22 -12 49 -14h6q24 0 44 9t36 23t28 31.5t19 35.5q19 55 19 108q0 69 -26.5 130t-72 106.5t-106.5 72t-130 26.5zM422 593q-53 0 -97.5 -16t-76 -44.5t-49 -69t-17.5 -88.5q0 -49 17 -89t48.5 -68.5t76 -44.5t98.5 -16q21 0 41.5 4t40.5 12
q-10 10 -15 19q-44 -22 -91 -22q-42 0 -79.5 16t-65.5 44t-44 65.5t-16 79.5t16 79.5t44 65.5t65.5 44t79.5 16q38 0 67 -11v11h30q-33 13 -73 13zM620 465v-171q2 4 4.5 8t4.5 9q10 30 10 64q0 49 -19 90zM398 286q-18 0 -34.5 7t-28.5 19.5t-19 28.5t-7 34q0 37 26 63
t63 26t62.5 -26t25.5 -63q0 -18 -7 -34t-19 -28.5t-28 -19.5t-34 -7zM398 424q-20 0 -34 -14.5t-14 -34.5t14 -34t34 -14t34.5 14t14.5 34t-14.5 34.5t-34.5 14.5z" />
    <glyph glyph-name="bracketleft" unicode="[" horiz-adv-x="295" 
d="M280 -156h-225v1063h225v-158h-57v-746h57v-159v0zM96 -115h143v79h-57v826h57v78h-143v-983v0z" />
    <glyph glyph-name="backslash" unicode="\" horiz-adv-x="532" 
d="M561 -1h-186l-367 749h186l367 -749v0zM402 41h93l-327 666h-93l327 -666v0z" />
    <glyph glyph-name="bracketright" unicode="]" horiz-adv-x="298" 
d="M272 -158h-226v160h55v749h-55v159h226v-1068v0zM86 -116h145v986h-145v-78h57v-830h-57v-78v0z" />
    <glyph glyph-name="asciicircum" unicode="^" horiz-adv-x="696" 
d="M700 390h-234l-102 158l-102 -158h-234l232 359h208l232 -359v0zM488 429h139l-180 280h-166l-181 -280h140l124 192l124 -192v0z" />
    <glyph glyph-name="underscore" unicode="_" horiz-adv-x="498" 
d="M343 -118h-288v119h288v-119v0zM84 -90h231v62h-231v-62v0z" />
    <glyph glyph-name="grave" unicode="`" horiz-adv-x="246" 
d="M235 448l-199 302h234l118 -179l-153 -123v0zM110 710l134 -204l91 73l-86 131h-139v0z" />
    <glyph glyph-name="braceleft" unicode="{" horiz-adv-x="326" 
d="M305 -160h-226v449q-2 14 -12 22.5t-25 8.5h-19v24v150h19q15 0 25 9t12 21v386h226v-160h-56v-226q-1 -32 -11 -61.5t-29 -53.5q16 -22 24.5 -45.5t13.5 -48.5h2v-20v-295h56v-160zM120 -119h144v78h-56v336q-1 28 -11.5 52.5t-28.5 45.5l-12 16l12 11q18 23 28.5 49
t11.5 55v267h56v78h-144v-346q-2 -24 -17.5 -42.5t-38.5 -24.5v-97q23 -6 38.5 -24.5t17.5 -42.5v-1v-410z" />
    <glyph glyph-name="bar" unicode="|" horiz-adv-x="254" 
d="M232 0h-177v751h177v-751v0zM96 40h95v671h-95v-671v0z" />
    <glyph glyph-name="braceright" unicode="}" horiz-adv-x="328" 
d="M274 -159h-226v159h56v315h3q6 51 38 92q-21 25 -30.5 55t-10.5 61v226h-56v161h226v-384q1 -13 11 -22.5t23 -9.5h22v-174h-22q-13 0 -23 -9t-11 -23v-447zM89 -118h143v408q2 25 18 44t39 25v95q-23 7 -39 25.5t-18 43.5v3v342h-143v-76h57v-266q0 -29 10 -57t30 -49
l11 -13l-11 -14q-18 -20 -28.5 -45.5t-11.5 -52.5v-8v-328h-57v-77z" />
    <glyph glyph-name="asciitilde" unicode="~" horiz-adv-x="550" 
d="M396 206q-27 0 -49.5 6.5t-41.5 16.5t-34 22l-28 23q-19 17 -30.5 24.5t-22.5 7.5q-31 0 -42.5 -9t-12.5 -10l-11 -14l-16 9l-91 56l10 17q2 3 11.5 15.5t29 26.5t50 25t72.5 11q24 0 43.5 -6t36.5 -15t30.5 -20l25.5 -21q24 -20 38.5 -29t31.5 -9q20 0 28.5 7t9.5 9
l9 17l114 -57l-9 -18q-6 -12 -18.5 -26.5t-31.5 -27.5t-44.5 -22t-57.5 -9zM190 346q23 0 41 -12t38 -29q25 -21 54.5 -40t72.5 -19q39 0 64.5 15t39.5 31l-43 22q-9 -8 -23.5 -14.5t-37.5 -6.5q-30 0 -51.5 14t-44.5 34q-22 18 -48 35t-62 17q-48 0 -75.5 -14.5
t-40.5 -28.5l42 -26q10 8 28 15t46 7z" />
    <glyph glyph-name="D" unicode="D" horiz-adv-x="691" 
d="M289 0h-234v750h238q4 0 20.5 -1.5t41.5 -6t56 -14.5t64 -26q93 -48 142.5 -132t49.5 -194q0 -112 -50 -196t-145 -132q-33 -17 -64 -26.5t-56 -14t-42 -6t-20 -1.5h-1zM94 39h195q3 0 18 1.5t38 6t51.5 13.5t58.5 24q84 42 128.5 117t44.5 175q0 99 -44 174t-127 118
q-30 15 -58 23.5t-50.5 13t-37.5 5.5t-18 1h-199v-672zM286 155h-76v441h81q4 0 15.5 -1t27.5 -5t35 -10.5t39 -16.5q104 -57 104 -187q0 -133 -106 -188q-20 -11 -39.5 -17t-36 -9.5t-28 -5t-15.5 -1.5h-1zM249 194h36q3 0 13 1.5t24 4.5t31.5 8.5t34.5 14.5q85 44 85 153
q0 55 -20 92t-64 60q-17 9 -33.5 14.5t-30.5 8.5t-23.5 4t-12.5 1h-40v-362z" />
    <glyph glyph-name="A" unicode="A" horiz-adv-x="723" 
d="M720 0h-210l-43 118h-187l-47 -118h-212l295 751h131l273 -751v0zM537 39h126l-243 672h-76l-265 -672h127l47 119h241l43 -119v0zM451 276h-152l79 200l73 -200v0zM358 316h37l-18 49l-19 -49v0z" />
    <glyph glyph-name="B" unicode="B" horiz-adv-x="702" 
d="M426 0h-371v751h376q42 -2 81.5 -16.5t71.5 -40.5q14 -11 28.5 -27.5t26.5 -38.5t19.5 -50.5t7.5 -63.5q0 -80 -42 -137q42 -59 42 -140q0 -32 -6 -58t-15.5 -46.5t-21 -36t-22.5 -26.5q-26 -26 -55 -40t-54.5 -20.5t-43.5 -8t-22 -1.5zM95 40h331q3 0 18.5 1t37 6.5
t46 17.5t45.5 33q18 19 35.5 52t17.5 87q0 76 -42 127l-10 13l10 12q42 51 42 125q0 52 -19.5 89t-49 60.5t-63.5 35t-63 12.5h-336v-671zM233 158h-19v158h214q8 0 21 -3t25 -10q34 -17 34 -66t-35 -66q-13 -8 -26 -10.5t-21 -2.5h-193zM254 198h171q4 0 13 1.5t17 6.5
q4 2 8.5 7.5t4.5 23.5t-4 23.5t-9 8.5q-8 4 -16 6t-12 2h-173v-79zM427 435h-213v158h214q3 0 17 -3t28 -11q35 -20 35 -65q0 -46 -35 -65q-14 -8 -28 -10.5t-17 -3.5h-1zM254 474h171l13 2.5t16 6.5q5 3 9.5 8.5t4.5 22.5t-4.5 22t-9.5 8q-8 5 -16 6.5l-13 2.5h-171v-79z
" />
    <glyph glyph-name="C" unicode="C" 
d="M410 0q-78 0 -146 29.5t-119 80.5t-80.5 119t-29.5 146t29.5 146t80.5 119t119 80.5t146 29.5q79 0 151.5 -32t126.5 -90l13 -16l-144 -129l-13 14q-26 29 -61 44.5t-73 15.5t-71 -14.5t-57.5 -39t-39 -58t-14.5 -70.5q0 -38 14.5 -71t39 -57.5t57.5 -39t71 -14.5
t73 15.5t61 44.5l13 15l144 -131l-13 -14q-54 -60 -126.5 -91.5t-151.5 -31.5zM410 711q-70 0 -131.5 -26.5t-107 -72t-72 -106.5t-26.5 -131q0 -69 26.5 -130.5t72 -107.5t107 -72.5t131.5 -26.5q66 0 127 25.5t108 71.5l-85 78q-31 -28 -69.5 -43t-80.5 -15
q-45 0 -85 17.5t-70 47.5t-47.5 70t-17.5 85t17.5 85t47.5 70t70 47.5t85 17.5q42 0 80.5 -15t69.5 -43l85 78q-47 46 -108 71t-127 25z" />
    </font>
</defs>
</svg>
